<svg xmlns="http://www.w3.org/2000/svg" viewBox="0 0 1240 320" width="1240" height="320" role="img">
  <rect width="1240" height="320" fill="#000000"/>
  <line x1="40" y1="160.0" x2="1200" y2="160.0" stroke="#262626" stroke-width="2"/>
  <path d="M 60.0 160.0 L 61.2 152.3 L 62.4 144.7 L 63.6 137.4 L 64.8 130.4 L 66.0 123.9 L 67.2 117.9 L 68.4 112.6 L 69.6 108.0 L 70.8 104.2 L 71.9 101.2 L 73.1 99.0 L 74.3 97.6 L 75.5 97.1 L 76.7 97.3 L 77.9 98.2 L 79.1 99.8 L 80.3 101.9 L 81.5 104.6 L 82.7 107.7 L 83.9 111.1 L 85.1 114.8 L 86.3 118.6 L 87.5 122.5 L 88.7 126.4 L 89.9 130.2 L 91.1 133.9 L 92.2 137.5 L 93.4 140.8 L 94.6 143.8 L 95.8 146.7 L 97.0 149.3 L 98.2 151.7 L 99.4 154.0 L 100.6 156.1 L 101.8 158.1 L 103.0 160.0 L 104.2 161.9 L 105.4 163.9 L 106.6 166.0 L 107.8 168.3 L 109.0 170.7 L 110.2 173.3 L 111.4 176.2 L 112.6 179.2 L 113.8 182.5 L 114.9 186.1 L 116.1 189.8 L 117.3 193.6 L 118.5 197.5 L 119.7 201.4 L 120.9 205.2 L 122.1 208.9 L 123.3 212.3 L 124.5 215.4 L 125.7 218.1 L 126.9 220.2 L 128.1 221.8 L 129.3 222.7 L 130.5 222.9 L 131.7 222.4 L 132.9 221.0 L 134.1 218.8 L 135.2 215.8 L 136.4 212.0 L 137.6 207.4 L 138.8 202.1 L 140.0 196.1 L 141.2 189.6 L 142.4 182.6 L 143.6 175.3 L 144.8 167.7 L 146.0 160.0" fill="none" stroke="#6f6f6f" stroke-width="3" stroke-linecap="round" stroke-linejoin="round"/>
  <path d="M 146.0 160.0 L 146.9 156.1 L 147.8 152.3 L 148.8 148.3 L 149.7 144.2 L 150.6 140.0 L 151.5 135.6 L 152.4 131.1 L 153.3 126.5 L 154.2 121.7 L 155.2 116.8 L 156.1 111.8 L 157.0 106.8 L 157.9 101.9 L 158.8 97.2 L 159.8 92.6 L 160.7 88.4 L 161.6 84.6 L 162.5 81.3 L 163.4 78.6 L 164.3 76.6 L 165.2 75.3 L 166.2 74.9 L 167.1 75.4 L 168.0 76.9 L 168.9 79.3 L 169.8 82.7 L 170.8 87.0 L 171.7 92.4 L 172.6 98.6 L 173.5 105.7 L 174.4 113.5 L 175.3 122.0 L 176.2 131.0 L 177.2 140.4 L 178.1 150.1 L 179.0 160.0 L 179.9 169.9 L 180.8 179.6 L 181.8 189.0 L 182.7 198.0 L 183.6 206.5 L 184.5 214.3 L 185.4 221.4 L 186.3 227.6 L 187.2 233.0 L 188.2 237.3 L 189.1 240.7 L 190.0 243.1 L 190.9 244.6 L 191.8 245.1 L 192.8 244.7 L 193.7 243.4 L 194.6 241.4 L 195.5 238.7 L 196.4 235.4 L 197.3 231.6 L 198.2 227.4 L 199.2 222.8 L 200.1 218.1 L 201.0 213.2 L 201.9 208.2 L 202.8 203.2 L 203.8 198.3 L 204.7 193.5 L 205.6 188.9 L 206.5 184.4 L 207.4 180.0 L 208.3 175.8 L 209.2 171.7 L 210.2 167.7 L 211.1 163.9 L 212.0 160.0" fill="none" stroke="#6f6f6f" stroke-width="3" stroke-linecap="round" stroke-linejoin="round"/>
  <path d="M 212.0 160.0 L 213.4 153.3 L 214.9 146.8 L 216.3 140.5 L 217.8 134.5 L 219.2 129.0 L 220.7 124.0 L 222.1 119.5 L 223.6 115.8 L 225.0 112.7 L 226.4 110.4 L 227.9 108.9 L 229.3 108.0 L 230.8 107.9 L 232.2 108.5 L 233.7 109.7 L 235.1 111.5 L 236.6 113.8 L 238.0 116.5 L 239.4 119.6 L 240.9 122.8 L 242.3 126.3 L 243.8 129.8 L 245.2 133.3 L 246.7 136.7 L 248.1 139.9 L 249.6 143.0 L 251.0 145.8 L 252.4 148.3 L 253.9 150.6 L 255.3 152.6 L 256.8 154.3 L 258.2 155.7 L 259.7 157.0 L 261.1 158.1 L 262.6 159.1 L 264.0 160.0 L 265.4 160.9 L 266.9 161.9 L 268.3 163.0 L 269.8 164.3 L 271.2 165.7 L 272.7 167.4 L 274.1 169.4 L 275.6 171.7 L 277.0 174.2 L 278.4 177.0 L 279.9 180.1 L 281.3 183.3 L 282.8 186.7 L 284.2 190.2 L 285.7 193.7 L 287.1 197.2 L 288.6 200.4 L 290.0 203.5 L 291.4 206.2 L 292.9 208.5 L 294.3 210.3 L 295.8 211.5 L 297.2 212.1 L 298.7 212.0 L 300.1 211.1 L 301.6 209.6 L 303.0 207.3 L 304.4 204.2 L 305.9 200.5 L 307.3 196.0 L 308.8 191.0 L 310.2 185.5 L 311.7 179.5 L 313.1 173.2 L 314.6 166.7 L 316.0 160.0" fill="none" stroke="#6f6f6f" stroke-width="3" stroke-linecap="round" stroke-linejoin="round"/>
  <rect x="310.0" y="50.0" width="104.0" height="220.0" rx="10" fill="#d090b0" fill-opacity="0.10"/>
  <path d="M 316.0 160.0 L 317.3 150.1 L 318.6 140.3 L 319.8 130.8 L 321.1 121.8 L 322.4 113.5 L 323.7 105.8 L 324.9 99.1 L 326.2 93.2 L 327.5 88.4 L 328.8 84.6 L 330.1 81.9 L 331.3 80.3 L 332.6 79.7 L 333.9 80.2 L 335.2 81.5 L 336.4 83.7 L 337.7 86.7 L 339.0 90.3 L 340.3 94.4 L 341.6 99.0 L 342.8 103.8 L 344.1 108.8 L 345.4 113.9 L 346.7 119.0 L 347.9 123.9 L 349.2 128.6 L 350.5 133.0 L 351.8 137.2 L 353.1 141.0 L 354.3 144.5 L 355.6 147.6 L 356.9 150.5 L 358.2 153.1 L 359.4 155.5 L 360.7 157.8 L 362.0 160.0 L 363.3 162.2 L 364.6 164.5 L 365.8 166.9 L 367.1 169.5 L 368.4 172.4 L 369.7 175.5 L 370.9 179.0 L 372.2 182.8 L 373.5 187.0 L 374.8 191.4 L 376.1 196.1 L 377.3 201.0 L 378.6 206.1 L 379.9 211.2 L 381.2 216.2 L 382.4 221.0 L 383.7 225.6 L 385.0 229.7 L 386.3 233.3 L 387.6 236.3 L 388.8 238.5 L 390.1 239.8 L 391.4 240.3 L 392.7 239.7 L 393.9 238.1 L 395.2 235.4 L 396.5 231.6 L 397.8 226.8 L 399.1 220.9 L 400.3 214.2 L 401.6 206.5 L 402.9 198.2 L 404.2 189.2 L 405.4 179.7 L 406.7 169.9 L 408.0 160.0" fill="none" stroke="#e7b9d2" stroke-width="4.5" stroke-linecap="round" stroke-linejoin="round"/>
  <circle cx="316.0" cy="160.0" r="4" fill="#d090b0"/>
  <circle cx="408.0" cy="160.0" r="4" fill="#d090b0"/>
  <path d="M 454.0 160.0 L 455.3 150.1 L 456.6 140.3 L 457.8 130.8 L 459.1 121.8 L 460.4 113.5 L 461.7 105.8 L 462.9 99.1 L 464.2 93.2 L 465.5 88.4 L 466.8 84.6 L 468.1 81.9 L 469.3 80.3 L 470.6 79.7 L 471.9 80.2 L 473.2 81.5 L 474.4 83.7 L 475.7 86.7 L 477.0 90.3 L 478.3 94.4 L 479.6 99.0 L 480.8 103.8 L 482.1 108.8 L 483.4 113.9 L 484.7 119.0 L 485.9 123.9 L 487.2 128.6 L 488.5 133.0 L 489.8 137.2 L 491.1 141.0 L 492.3 144.5 L 493.6 147.6 L 494.9 150.5 L 496.2 153.1 L 497.4 155.5 L 498.7 157.8 L 500.0 160.0 L 501.3 162.2 L 502.6 164.5 L 503.8 166.9 L 505.1 169.5 L 506.4 172.4 L 507.7 175.5 L 508.9 179.0 L 510.2 182.8 L 511.5 187.0 L 512.8 191.4 L 514.1 196.1 L 515.3 201.0 L 516.6 206.1 L 517.9 211.2 L 519.2 216.2 L 520.4 221.0 L 521.7 225.6 L 523.0 229.7 L 524.3 233.3 L 525.6 236.3 L 526.8 238.5 L 528.1 239.8 L 529.4 240.3 L 530.7 239.7 L 531.9 238.1 L 533.2 235.4 L 534.5 231.6 L 535.8 226.8 L 537.1 220.9 L 538.3 214.2 L 539.6 206.5 L 540.9 198.2 L 542.2 189.2 L 543.4 179.7 L 544.7 169.9 L 546.0 160.0" fill="none" stroke="#d090b0" stroke-opacity="0.60" stroke-width="4" stroke-linecap="round" stroke-linejoin="round"/>
  <line x1="454.0" y1="154.0" x2="454.0" y2="166.0" stroke="#262626" stroke-width="2"/>
  <path d="M 546.0 160.0 L 547.3 150.1 L 548.6 140.3 L 549.8 130.8 L 551.1 121.8 L 552.4 113.5 L 553.7 105.8 L 554.9 99.1 L 556.2 93.2 L 557.5 88.4 L 558.8 84.6 L 560.1 81.9 L 561.3 80.3 L 562.6 79.7 L 563.9 80.2 L 565.2 81.5 L 566.4 83.7 L 567.7 86.7 L 569.0 90.3 L 570.3 94.4 L 571.6 99.0 L 572.8 103.8 L 574.1 108.8 L 575.4 113.9 L 576.7 119.0 L 577.9 123.9 L 579.2 128.6 L 580.5 133.0 L 581.8 137.2 L 583.1 141.0 L 584.3 144.5 L 585.6 147.6 L 586.9 150.5 L 588.2 153.1 L 589.4 155.5 L 590.7 157.8 L 592.0 160.0 L 593.3 162.2 L 594.6 164.5 L 595.8 166.9 L 597.1 169.5 L 598.4 172.4 L 599.7 175.5 L 600.9 179.0 L 602.2 182.8 L 603.5 187.0 L 604.8 191.4 L 606.1 196.1 L 607.3 201.0 L 608.6 206.1 L 609.9 211.2 L 611.2 216.2 L 612.4 221.0 L 613.7 225.6 L 615.0 229.7 L 616.3 233.3 L 617.6 236.3 L 618.8 238.5 L 620.1 239.8 L 621.4 240.3 L 622.7 239.7 L 623.9 238.1 L 625.2 235.4 L 626.5 231.6 L 627.8 226.8 L 629.1 220.9 L 630.3 214.2 L 631.6 206.5 L 632.9 198.2 L 634.2 189.2 L 635.4 179.7 L 636.7 169.9 L 638.0 160.0" fill="none" stroke="#d090b0" stroke-opacity="0.80" stroke-width="4" stroke-linecap="round" stroke-linejoin="round"/>
  <line x1="546.0" y1="154.0" x2="546.0" y2="166.0" stroke="#262626" stroke-width="2"/>
  <path d="M 638.0 160.0 L 639.3 150.1 L 640.6 140.3 L 641.8 130.8 L 643.1 121.8 L 644.4 113.5 L 645.7 105.8 L 646.9 99.1 L 648.2 93.2 L 649.5 88.4 L 650.8 84.6 L 652.1 81.9 L 653.3 80.3 L 654.6 79.7 L 655.9 80.2 L 657.2 81.5 L 658.4 83.7 L 659.7 86.7 L 661.0 90.3 L 662.3 94.4 L 663.6 99.0 L 664.8 103.8 L 666.1 108.8 L 667.4 113.9 L 668.7 119.0 L 669.9 123.9 L 671.2 128.6 L 672.5 133.0 L 673.8 137.2 L 675.1 141.0 L 676.3 144.5 L 677.6 147.6 L 678.9 150.5 L 680.2 153.1 L 681.4 155.5 L 682.7 157.8 L 684.0 160.0 L 685.3 162.2 L 686.6 164.5 L 687.8 166.9 L 689.1 169.5 L 690.4 172.4 L 691.7 175.5 L 692.9 179.0 L 694.2 182.8 L 695.5 187.0 L 696.8 191.4 L 698.1 196.1 L 699.3 201.0 L 700.6 206.1 L 701.9 211.2 L 703.2 216.2 L 704.4 221.0 L 705.7 225.6 L 707.0 229.7 L 708.3 233.3 L 709.6 236.3 L 710.8 238.5 L 712.1 239.8 L 713.4 240.3 L 714.7 239.7 L 715.9 238.1 L 717.2 235.4 L 718.5 231.6 L 719.8 226.8 L 721.1 220.9 L 722.3 214.2 L 723.6 206.5 L 724.9 198.2 L 726.2 189.2 L 727.4 179.7 L 728.7 169.9 L 730.0 160.0" fill="none" stroke="#d090b0" stroke-opacity="1.00" stroke-width="4" stroke-linecap="round" stroke-linejoin="round"/>
  <line x1="638.0" y1="154.0" x2="638.0" y2="166.0" stroke="#262626" stroke-width="2"/>
  <path d="M 730.0 160.0 L 731.3 150.1 L 732.6 140.3 L 733.8 130.8 L 735.1 121.8 L 736.4 113.5 L 737.7 105.8 L 738.9 99.1 L 740.2 93.2 L 741.5 88.4 L 742.8 84.6 L 744.1 81.9 L 745.3 80.3 L 746.6 79.7 L 747.9 80.2 L 749.2 81.5 L 750.4 83.7 L 751.7 86.7 L 753.0 90.3 L 754.3 94.4 L 755.6 99.0 L 756.8 103.8 L 758.1 108.8 L 759.4 113.9 L 760.7 119.0 L 761.9 123.9 L 763.2 128.6 L 764.5 133.0 L 765.8 137.2 L 767.1 141.0 L 768.3 144.5 L 769.6 147.6 L 770.9 150.5 L 772.2 153.1 L 773.4 155.5 L 774.7 157.8 L 776.0 160.0 L 777.3 162.2 L 778.6 164.5 L 779.8 166.9 L 781.1 169.5 L 782.4 172.4 L 783.7 175.5 L 784.9 179.0 L 786.2 182.8 L 787.5 187.0 L 788.8 191.4 L 790.1 196.1 L 791.3 201.0 L 792.6 206.1 L 793.9 211.2 L 795.2 216.2 L 796.4 221.0 L 797.7 225.6 L 799.0 229.7 L 800.3 233.3 L 801.6 236.3 L 802.8 238.5 L 804.1 239.8 L 805.4 240.3 L 806.7 239.7 L 807.9 238.1 L 809.2 235.4 L 810.5 231.6 L 811.8 226.8 L 813.1 220.9 L 814.3 214.2 L 815.6 206.5 L 816.9 198.2 L 818.2 189.2 L 819.4 179.7 L 820.7 169.9 L 822.0 160.0" fill="none" stroke="#d090b0" stroke-opacity="1.00" stroke-width="4" stroke-linecap="round" stroke-linejoin="round"/>
  <line x1="730.0" y1="154.0" x2="730.0" y2="166.0" stroke="#262626" stroke-width="2"/>
  <path d="M 822.0 160.0 L 823.3 150.1 L 824.6 140.3 L 825.8 130.8 L 827.1 121.8 L 828.4 113.5 L 829.7 105.8 L 830.9 99.1 L 832.2 93.2 L 833.5 88.4 L 834.8 84.6 L 836.1 81.9 L 837.3 80.3 L 838.6 79.7 L 839.9 80.2 L 841.2 81.5 L 842.4 83.7 L 843.7 86.7 L 845.0 90.3 L 846.3 94.4 L 847.6 99.0 L 848.8 103.8 L 850.1 108.8 L 851.4 113.9 L 852.7 119.0 L 853.9 123.9 L 855.2 128.6 L 856.5 133.0 L 857.8 137.2 L 859.1 141.0 L 860.3 144.5 L 861.6 147.6 L 862.9 150.5 L 864.2 153.1 L 865.4 155.5 L 866.7 157.8 L 868.0 160.0 L 869.3 162.2 L 870.6 164.5 L 871.8 166.9 L 873.1 169.5 L 874.4 172.4 L 875.7 175.5 L 876.9 179.0 L 878.2 182.8 L 879.5 187.0 L 880.8 191.4 L 882.1 196.1 L 883.3 201.0 L 884.6 206.1 L 885.9 211.2 L 887.2 216.2 L 888.4 221.0 L 889.7 225.6 L 891.0 229.7 L 892.3 233.3 L 893.6 236.3 L 894.8 238.5 L 896.1 239.8 L 897.4 240.3 L 898.7 239.7 L 899.9 238.1 L 901.2 235.4 L 902.5 231.6 L 903.8 226.8 L 905.1 220.9 L 906.3 214.2 L 907.6 206.5 L 908.9 198.2 L 910.2 189.2 L 911.4 179.7 L 912.7 169.9 L 914.0 160.0" fill="none" stroke="#d090b0" stroke-opacity="1.00" stroke-width="4" stroke-linecap="round" stroke-linejoin="round"/>
  <line x1="822.0" y1="154.0" x2="822.0" y2="166.0" stroke="#262626" stroke-width="2"/>
  <path d="M 914.0 160.0 L 915.3 150.1 L 916.6 140.3 L 917.8 130.8 L 919.1 121.8 L 920.4 113.5 L 921.7 105.8 L 922.9 99.1 L 924.2 93.2 L 925.5 88.4 L 926.8 84.6 L 928.1 81.9 L 929.3 80.3 L 930.6 79.7 L 931.9 80.2 L 933.2 81.5 L 934.4 83.7 L 935.7 86.7 L 937.0 90.3 L 938.3 94.4 L 939.6 99.0 L 940.8 103.8 L 942.1 108.8 L 943.4 113.9 L 944.7 119.0 L 945.9 123.9 L 947.2 128.6 L 948.5 133.0 L 949.8 137.2 L 951.1 141.0 L 952.3 144.5 L 953.6 147.6 L 954.9 150.5 L 956.2 153.1 L 957.4 155.5 L 958.7 157.8 L 960.0 160.0 L 961.3 162.2 L 962.6 164.5 L 963.8 166.9 L 965.1 169.5 L 966.4 172.4 L 967.7 175.5 L 968.9 179.0 L 970.2 182.8 L 971.5 187.0 L 972.8 191.4 L 974.1 196.1 L 975.3 201.0 L 976.6 206.1 L 977.9 211.2 L 979.2 216.2 L 980.4 221.0 L 981.7 225.6 L 983.0 229.7 L 984.3 233.3 L 985.6 236.3 L 986.8 238.5 L 988.1 239.8 L 989.4 240.3 L 990.7 239.7 L 991.9 238.1 L 993.2 235.4 L 994.5 231.6 L 995.8 226.8 L 997.1 220.9 L 998.3 214.2 L 999.6 206.5 L 1000.9 198.2 L 1002.2 189.2 L 1003.4 179.7 L 1004.7 169.9 L 1006.0 160.0" fill="none" stroke="#d090b0" stroke-opacity="1.00" stroke-width="4" stroke-linecap="round" stroke-linejoin="round"/>
  <line x1="914.0" y1="154.0" x2="914.0" y2="166.0" stroke="#262626" stroke-width="2"/>
  <path d="M 1006.0 160.0 L 1007.3 150.1 L 1008.6 140.3 L 1009.8 130.8 L 1011.1 121.8 L 1012.4 113.5 L 1013.7 105.8 L 1014.9 99.1 L 1016.2 93.2 L 1017.5 88.4 L 1018.8 84.6 L 1020.1 81.9 L 1021.3 80.3 L 1022.6 79.7 L 1023.9 80.2 L 1025.2 81.5 L 1026.4 83.7 L 1027.7 86.7 L 1029.0 90.3 L 1030.3 94.4 L 1031.6 99.0 L 1032.8 103.8 L 1034.1 108.8 L 1035.4 113.9 L 1036.7 119.0 L 1037.9 123.9 L 1039.2 128.6 L 1040.5 133.0 L 1041.8 137.2 L 1043.1 141.0 L 1044.3 144.5 L 1045.6 147.6 L 1046.9 150.5 L 1048.2 153.1 L 1049.4 155.5 L 1050.7 157.8 L 1052.0 160.0 L 1053.3 162.2 L 1054.6 164.5 L 1055.8 166.9 L 1057.1 169.5 L 1058.4 172.4 L 1059.7 175.5 L 1060.9 179.0 L 1062.2 182.8 L 1063.5 187.0 L 1064.8 191.4 L 1066.1 196.1 L 1067.3 201.0 L 1068.6 206.1 L 1069.9 211.2 L 1071.2 216.2 L 1072.4 221.0 L 1073.7 225.6 L 1075.0 229.7 L 1076.3 233.3 L 1077.6 236.3 L 1078.8 238.5 L 1080.1 239.8 L 1081.4 240.3 L 1082.7 239.7 L 1083.9 238.1 L 1085.2 235.4 L 1086.5 231.6 L 1087.8 226.8 L 1089.1 220.9 L 1090.3 214.2 L 1091.6 206.5 L 1092.9 198.2 L 1094.2 189.2 L 1095.4 179.7 L 1096.7 169.9 L 1098.0 160.0" fill="none" stroke="#d090b0" stroke-opacity="1.00" stroke-width="4" stroke-linecap="round" stroke-linejoin="round"/>
  <line x1="1006.0" y1="154.0" x2="1006.0" y2="166.0" stroke="#262626" stroke-width="2"/>
  <path d="M 1098.0 160.0 L 1099.3 150.1 L 1100.6 140.3 L 1101.8 130.8 L 1103.1 121.8 L 1104.4 113.5 L 1105.7 105.8 L 1106.9 99.1 L 1108.2 93.2 L 1109.5 88.4 L 1110.8 84.6 L 1112.1 81.9 L 1113.3 80.3 L 1114.6 79.7 L 1115.9 80.2 L 1117.2 81.5 L 1118.4 83.7 L 1119.7 86.7 L 1121.0 90.3 L 1122.3 94.4 L 1123.6 99.0 L 1124.8 103.8 L 1126.1 108.8 L 1127.4 113.9 L 1128.7 119.0 L 1129.9 123.9 L 1131.2 128.6 L 1132.5 133.0 L 1133.8 137.2 L 1135.1 141.0 L 1136.3 144.5 L 1137.6 147.6 L 1138.9 150.5 L 1140.2 153.1 L 1141.4 155.5 L 1142.7 157.8 L 1144.0 160.0 L 1145.3 162.2 L 1146.6 164.5 L 1147.8 166.9 L 1149.1 169.5 L 1150.4 172.4 L 1151.7 175.5 L 1152.9 179.0 L 1154.2 182.8 L 1155.5 187.0 L 1156.8 191.4 L 1158.1 196.1 L 1159.3 201.0 L 1160.6 206.1 L 1161.9 211.2 L 1163.2 216.2 L 1164.4 221.0 L 1165.7 225.6 L 1167.0 229.7 L 1168.3 233.3 L 1169.6 236.3 L 1170.8 238.5 L 1172.1 239.8 L 1173.4 240.3 L 1174.7 239.7 L 1175.9 238.1 L 1177.2 235.4 L 1178.5 231.6 L 1179.8 226.8 L 1181.1 220.9 L 1182.3 214.2 L 1183.6 206.5 L 1184.9 198.2 L 1186.2 189.2 L 1187.4 179.7 L 1188.7 169.9 L 1190.0 160.0" fill="none" stroke="#d090b0" stroke-opacity="1.00" stroke-width="4" stroke-linecap="round" stroke-linejoin="round"/>
  <line x1="1098.0" y1="154.0" x2="1098.0" y2="166.0" stroke="#262626" stroke-width="2"/>
</svg>
